<svg id="visual" viewBox="0 0 900 600" width="900" height="600" xmlns="http://www.w3.org/2000/svg" xmlns:xlink="http://www.w3.org/1999/xlink" version="1.1"><path d="M0 85L82 169L164 109L245 169L327 181L409 163L491 169L573 289L655 103L736 163L818 235L900 271L900 0L818 0L736 0L655 0L573 0L491 0L409 0L327 0L245 0L164 0L82 0L0 0Z" fill="#0ca97a"></path><path d="M0 181L82 259L164 205L245 259L327 265L409 265L491 247L573 343L655 151L736 229L818 295L900 385L900 269L818 233L736 161L655 101L573 287L491 167L409 161L327 179L245 167L164 107L82 167L0 83Z" fill="#01a079"></path><path d="M0 409L82 451L164 439L245 457L327 397L409 463L491 409L573 433L655 373L736 433L818 469L900 469L900 383L818 293L736 227L655 149L573 341L491 245L409 263L327 263L245 257L164 203L82 257L0 179Z" fill="#009678"></path><path d="M0 487L82 529L164 475L245 493L327 499L409 505L491 487L573 493L655 451L736 523L818 547L900 553L900 467L818 467L736 431L655 371L573 431L491 407L409 461L327 395L245 455L164 437L82 449L0 407Z" fill="#008d76"></path><path d="M0 601L82 601L164 601L245 601L327 601L409 601L491 601L573 601L655 601L736 601L818 601L900 601L900 551L818 545L736 521L655 449L573 491L491 485L409 503L327 497L245 491L164 473L82 527L0 485Z" fill="#038373"></path></svg>